<svg width="25" height="28" viewBox="0 0 25 28" fill="none" xmlns="http://www.w3.org/2000/svg">
<path fill-rule="evenodd" clip-rule="evenodd" d="M24.3623 27.3334H4.3623C2.15317 27.3334 0.362305 25.5425 0.362305 23.3334V4.66669C0.362305 2.45755 2.15317 0.666687 4.3623 0.666687H24.3623V22C23.6259 22 23.029 22.597 23.029 23.3334C23.029 24.0697 23.6259 24.6667 24.3623 24.6667V27.3334ZM20.3623 23.3334C20.3623 22.8658 20.4425 22.4171 20.5899 22H4.3623C3.62593 22 3.02897 22.597 3.02897 23.3334C3.02897 24.0697 3.62593 24.6667 4.3623 24.6667H20.5899C20.4425 24.2496 20.3623 23.8009 20.3623 23.3334ZM4.3623 3.33335H21.6956V19.3334H4.3623C3.89479 19.3334 3.44601 19.4136 3.02897 19.561V4.66669C3.02897 3.93031 3.62593 3.33335 4.3623 3.33335Z" fill="black"/>
</svg>
