<svg width="32" height="32" viewBox="0 0 32 32" fill="none" xmlns="http://www.w3.org/2000/svg">
<path d="M31.2901 0.734168C30.3436 -0.212362 28.8146 -0.212362 27.868 0.734168L16 12.5779L4.13197 0.709898C3.18544 -0.236633 1.65643 -0.236633 0.709898 0.709898C-0.236633 1.65643 -0.236633 3.18544 0.709898 4.13197L12.5779 16L0.709898 27.868C-0.236633 28.8146 -0.236633 30.3436 0.709898 31.2901C1.65643 32.2366 3.18544 32.2366 4.13197 31.2901L16 19.4221L27.868 31.2901C28.8146 32.2366 30.3436 32.2366 31.2901 31.2901C32.2366 30.3436 32.2366 28.8146 31.2901 27.868L19.4221 16L31.2901 4.13197C32.2124 3.20971 32.2124 1.65643 31.2901 0.734168Z" fill="black"/>
</svg>
