<svg width="64" height="64" viewBox="0 0 64 64" fill="none"
    xmlns="http://www.w3.org/2000/svg">
    <g clip-path="url(#clip0_1030_228)">
        <path d="M31.9998 10.6667C18.6665 10.6667 7.27984 18.9601 2.6665 30.6667C7.27984 42.3734 18.6665 50.6667 31.9998 50.6667C45.3332 50.6667 56.7198 42.3734 61.3332 30.6667C56.7198 18.9601 45.3332 10.6667 31.9998 10.6667ZM31.9998 44.0001C24.6398 44.0001 18.6665 38.0267 18.6665 30.6667C18.6665 23.3067 24.6398 17.3334 31.9998 17.3334C39.3598 17.3334 45.3332 23.3067 45.3332 30.6667C45.3332 38.0267 39.3598 44.0001 31.9998 44.0001ZM31.9998 22.6667C27.5732 22.6667 23.9998 26.2401 23.9998 30.6667C23.9998 35.0934 27.5732 38.6667 31.9998 38.6667C36.4265 38.6667 39.9998 35.0934 39.9998 30.6667C39.9998 26.2401 36.4265 22.6667 31.9998 22.6667Z" fill="black"/>
    </g>
    <defs>
        <clipPath id="clip0_1030_228">
            <rect width="64" height="64" fill="white"/>
        </clipPath>
    </defs>
</svg>
