<svg width="32" height="32" viewBox="0 0 32 32" fill="none" xmlns="http://www.w3.org/2000/svg">
<path d="M13.7244 0.0396411C6.27891 0.0396411 0.222168 6.2633 0.222168 13.914C0.222168 21.5648 6.27891 27.7884 13.7244 27.7884C16.0005 27.7884 18.2381 27.2334 20.1284 26.1631C20.2798 26.3504 20.4477 26.5229 20.6299 26.6785L24.4877 30.6426C24.8439 31.0545 25.2783 31.3872 25.7642 31.6203C26.2501 31.8534 26.7772 31.982 27.3132 31.9983C27.8492 32.0145 28.3828 31.9179 28.8812 31.7146C29.3796 31.5112 29.8322 31.2053 30.2114 30.8157C30.5906 30.4261 30.8883 29.9609 31.0862 29.4488C31.2841 28.9367 31.378 28.3884 31.3622 27.8376C31.3464 27.2869 31.2213 26.7452 30.9944 26.2459C30.7675 25.7467 30.4437 25.3003 30.0429 24.9343L26.1851 20.9702C25.9972 20.777 25.7904 20.6043 25.5679 20.4548C26.6095 18.5124 27.2653 16.2529 27.2653 13.8744C27.2653 6.22366 21.2086 0 13.763 0L13.7244 0.0396411ZM13.7244 4.00375C19.0868 4.00375 23.3689 8.40392 23.3689 13.914C23.3689 16.5303 22.4431 18.9485 20.8228 20.7323C20.7842 20.7719 20.7456 20.8116 20.7071 20.8512C20.5248 21.0068 20.357 21.1793 20.2055 21.3666C18.5081 22.9522 16.1934 23.864 13.6859 23.864C8.32354 23.864 4.04138 19.4638 4.04138 13.9537C4.04138 8.44356 8.32354 4.04339 13.6859 4.04339L13.7244 4.00375Z" fill="#777777"/>
</svg>
